HIERARCHY
ROOT Hips
{
	OFFSET 0.00000 0.00000 0.00000
	CHANNELS 6 Xposition Yposition Zposition Zrotation Yrotation Xrotation 
	JOINT LHipJoint
	{
		OFFSET 0 0 0
		CHANNELS 3 Zrotation Yrotation Xrotation
		JOINT LeftUpLeg
		{
			OFFSET 1.58161 -1.81893 0.78828
			CHANNELS 3 Zrotation Yrotation Xrotation
			JOINT LeftLeg
			{
				OFFSET 2.53374 -6.96141 0.00000
				CHANNELS 3 Zrotation Yrotation Xrotation
				JOINT LeftFoot
				{
					OFFSET 2.63509 -7.23986 0.00000
					CHANNELS 3 Zrotation Yrotation Xrotation
					JOINT LeftToeBase
					{
						OFFSET 0.14115 -0.38781 2.05350
						CHANNELS 3 Zrotation Yrotation Xrotation
						End Site
						{
							OFFSET 0.00000 -0.00000 1.05543
						}
					}
				}
			}
		}
	}
	JOINT RHipJoint
	{
		OFFSET 0 0 0
		CHANNELS 3 Zrotation Yrotation Xrotation
		JOINT RightUpLeg
		{
			OFFSET -1.11138 -1.81893 0.78828
			CHANNELS 3 Zrotation Yrotation Xrotation
			JOINT RightLeg
			{
				OFFSET -2.58392 -7.09926 0.00000
				CHANNELS 3 Zrotation Yrotation Xrotation
				JOINT RightFoot
				{
					OFFSET -2.66423 -7.31992 0.00000
					CHANNELS 3 Zrotation Yrotation Xrotation
					JOINT RightToeBase
					{
						OFFSET -0.18831 -0.51739 2.12114
						CHANNELS 3 Zrotation Yrotation Xrotation
						End Site
						{
							OFFSET -0.00000 -0.00000 1.09845
						}
					}
				}
			}
		}
	}
	JOINT LowerBack
	{
		OFFSET 0 0 0
		CHANNELS 3 Zrotation Yrotation Xrotation
		JOINT Spine
		{
			OFFSET -0.01511 1.97958 -0.08829
			CHANNELS 3 Zrotation Yrotation Xrotation
			JOINT Spine1
			{
				OFFSET 0.08344 1.97334 -0.04330
				CHANNELS 3 Zrotation Yrotation Xrotation
				JOINT Neck
				{
					OFFSET 0 0 0
					CHANNELS 3 Zrotation Yrotation Xrotation
					JOINT Neck1
					{
						OFFSET 0.00559 1.76246 0.31246
						CHANNELS 3 Zrotation Yrotation Xrotation
						JOINT Head
						{
							OFFSET -0.07011 1.80354 -0.30524
							CHANNELS 3 Zrotation Yrotation Xrotation
							End Site
							{
								OFFSET -0.02385 1.83547 -0.13906
							}
						}
					}
				}
				JOINT LeftShoulder
				{
					OFFSET 0 0 0
					CHANNELS 3 Zrotation Yrotation Xrotation
					JOINT LeftArm
					{
						OFFSET 3.20667 1.30156 -0.60240
						CHANNELS 3 Zrotation Yrotation Xrotation
						JOINT LeftForeArm
						{
							OFFSET 4.95663 -0.00000 0.00000
							CHANNELS 3 Zrotation Yrotation Xrotation
							JOINT LeftHand
							{
								OFFSET 3.38177 -0.00000 0.00000
								CHANNELS 3 Zrotation Yrotation Xrotation
								JOINT LeftFingerBase
								{
									OFFSET 0 0 0
									CHANNELS 3 Zrotation Yrotation Xrotation
									JOINT LeftHandIndex1
									{
										OFFSET 0.66291 -0.00000 0.00000
										CHANNELS 3 Zrotation Yrotation Xrotation
										End Site
										{
											OFFSET 0.53445 -0.00000 0.00000
										}
									}
								}
								JOINT LThumb
								{
									OFFSET 0 0 0
									CHANNELS 3 Zrotation Yrotation Xrotation
									End Site
									{
										OFFSET 0.54261 -0.00000 0.54261
									}
								}
							}
						}
					}
				}
				JOINT RightShoulder
				{
					OFFSET 0 0 0
					CHANNELS 3 Zrotation Yrotation Xrotation
					JOINT RightArm
					{
						OFFSET -3.06877 1.34672 -0.60964
						CHANNELS 3 Zrotation Yrotation Xrotation
						JOINT RightForeArm
						{
							OFFSET -5.08365 -0.00000 0.00000
							CHANNELS 3 Zrotation Yrotation Xrotation
							JOINT RightHand
							{
								OFFSET -3.35984 -0.00000 0.00000
								CHANNELS 3 Zrotation Yrotation Xrotation
								JOINT RightFingerBase
								{
									OFFSET 0 0 0
									CHANNELS 3 Zrotation Yrotation Xrotation
									JOINT RightHandIndex1
									{
										OFFSET -0.82076 -0.00000 0.00000
										CHANNELS 3 Zrotation Yrotation Xrotation
										End Site
										{
											OFFSET -0.66172 -0.00000 0.00000
										}
									}
								}
								JOINT RThumb
								{
									OFFSET 0 0 0
									CHANNELS 3 Zrotation Yrotation Xrotation
									End Site
									{
										OFFSET -0.67182 -0.00000 0.67182
									}
								}
							}
						}
					}
				}
			}
		}
	}
}
MOTION
Frames: 7
Frame Time: .0083333
-5.8089 17.7013 3.2571 -8.8845 37.1940 1.9958 0.0000 0.0000 0.0000 6.2249 19.4882 -7.1820 3.5925 11.5974 34.3223 -0.8941 17.7414 0.4967 2.1298 -9.1313 -26.2070 0.0000 0.0000 0.0000 24.7827 29.0214 -20.9872 -3.2042 -11.0185 32.3422 1.9859 24.3610 4.8503 -3.2376 -11.0700 32.5164 -15.8519 -10.3058 1.3678 -4.4135 -13.9118 -1.4685 3.7033 -6.7445 0.2362 0.4573 22.2886 -5.5580 -13.2912 32.8635 14.3330 -1.0550 14.7474 7.7225 -0.0000 -0.0000 0.0000 171.4158 -45.8770 178.7146 19.6334 -30.1981 -5.3457 -0.0000 0.0000 -1.4776 18.4663 1.6831 0.5620 -7.1250 0.0000 -0.0000 10.5381 -58.2246 176.5659 -0.0000 -0.0000 0.0000 43.1951 46.4977 -17.1142 -123.6347 55.2609 -88.6651 0.0000 -0.0000 -0.5002 -61.9744 11.5049 -20.5416 7.1250 -0.0000 -0.0000 -22.2528 -7.8648 -20.6669
-5.8068 17.6999 3.2792 -8.6581 36.8204 2.2370 0.0000 0.0000 0.0000 6.1003 19.6270 -7.1012 3.5851 11.5868 34.2854 -0.9860 18.1606 -0.7016 1.5514 -7.8614 -22.2939 0.0000 0.0000 0.0000 24.6771 29.2097 -21.0283 -3.2232 -11.0478 32.4413 2.0245 24.5541 5.0480 -3.2501 -11.0893 32.5816 -15.7206 -10.2551 1.3006 -4.5722 -13.8461 -1.5950 3.4942 -6.6952 0.0568 0.5932 22.2216 -5.4145 -13.4071 32.6968 13.9854 -1.1518 14.7059 7.6115 0.0000 -0.0000 0.0000 170.2796 -45.3345 179.8726 19.9510 -30.5833 -5.5064 -0.0000 0.0000 -2.0598 19.3461 1.2605 0.4425 -7.1250 0.0000 -0.0000 9.5044 -58.6612 176.8071 0.0000 -0.0000 0.0000 40.7736 46.3468 -19.0656 -124.3117 55.0470 -89.2206 0.0000 -0.0000 -0.0052 -61.6583 11.2531 -19.8896 7.1250 -0.0000 -0.0000 -22.1621 -8.4845 -20.2727
-5.8055 17.6989 3.3004 -8.5033 36.4637 2.3637 0.0000 0.0000 0.0000 6.0753 19.6908 -6.8908 3.5774 11.5758 34.2474 -1.0658 18.4493 -2.1646 0.8019 -5.7154 -15.9609 0.0000 0.0000 0.0000 24.6720 29.3530 -20.9876 -3.2415 -11.0761 32.5370 2.0565 24.7108 5.2255 -3.2855 -11.1434 32.7652 -15.6050 -10.3267 1.3101 -4.5473 -13.9478 -1.6265 3.4618 -6.7442 0.0154 0.2938 22.2868 -5.9324 -13.4797 32.8636 14.0406 -1.0600 14.7252 7.6949 0.0000 0.0000 0.0000 168.5726 -45.1101 -178.5482 20.1485 -30.8208 -5.6072 -0.0000 0.0000 -2.5369 20.1327 0.6968 0.2554 -7.1250 0.0000 -0.0000 8.6088 -59.2533 176.9886 0.0000 0.0000 0.0000 38.1355 46.6412 -20.9134 -124.7307 54.9116 -89.5638 0.0000 0.0000 0.4628 -61.4341 10.8373 -19.0520 7.1250 -0.0000 -0.0000 -22.1732 -9.3335 -19.8765
-5.8034 17.7000 3.3197 -8.3564 36.1431 2.4423 0.0000 0.0000 0.0000 6.0480 19.6975 -6.6520 3.5700 11.5651 34.2105 -1.0526 18.5129 -1.4837 0.8336 -5.8243 -16.2756 0.0000 0.0000 0.0000 24.6797 29.5334 -20.8598 -3.2550 -11.0968 32.6071 2.0777 24.8288 5.2460 -3.2871 -11.1458 32.7733 -15.3858 -10.0543 1.2619 -4.9947 -13.5957 -1.7824 2.9582 -6.5404 -0.3424 1.6773 21.9893 -4.9242 -13.7301 32.3694 14.0678 -1.4028 14.5910 7.7572 0.0000 0.0000 0.0000 168.5166 -44.0459 -178.2363 20.3963 -31.1168 -5.7347 -0.0000 0.0000 -3.1915 20.5339 0.2224 0.0833 -7.1250 0.0000 -0.0000 8.1914 -59.7563 177.0373 0.0000 0.0000 0.0000 36.3233 45.4990 -22.8329 -125.2085 54.7542 -89.9544 0.0000 0.0000 0.9636 -61.3390 10.6484 -18.6781 7.1250 -0.0000 -0.0000 -22.1821 -9.7144 -19.7009
-5.8004 17.7035 3.3414 -8.1491 35.7878 2.6496 0.0000 0.0000 0.0000 5.9215 19.7731 -6.5222 3.5583 11.5482 34.1518 -0.9534 18.3839 0.7217 1.5044 -7.7468 -21.9478 0.0000 0.0000 0.0000 24.5897 29.8935 -20.7586 -3.2632 -11.1094 32.6496 2.0760 24.8355 5.1430 -3.2312 -11.0602 32.4833 -15.4043 -10.1413 1.1346 -4.9376 -13.6879 -1.8032 2.9925 -6.5907 -0.2617 1.0130 22.1631 -5.2050 -13.5858 32.5399 13.6694 -1.2874 14.6736 7.5555 0.0000 -0.0000 0.0000 166.9806 -43.8287 -176.9901 20.5709 -31.3240 -5.8253 -0.0000 0.0000 -3.4441 21.0401 -0.3135 -0.1206 -7.1250 0.0000 -0.0000 7.6336 -60.3285 177.1363 0.0000 -0.0000 0.0000 33.7651 45.7138 -24.6084 -125.3345 54.7122 -90.0573 0.0000 0.0000 1.4476 -61.4049 10.7399 -18.8735 7.1250 -0.0000 -0.0000 -22.1886 -9.5194 -19.8026
-5.7970 17.7080 3.3632 -8.0531 35.4158 2.8630 0.0000 0.0000 0.0000 5.8710 19.8645 -6.4716 3.5402 11.5220 34.0613 -0.8982 18.3877 1.8832 1.8684 -8.5863 -24.5096 0.0000 0.0000 0.0000 24.5589 30.3228 -20.7153 -3.2666 -11.1146 32.6672 2.0686 24.8011 5.0929 -3.1847 -10.9881 32.2399 -15.2756 -10.1593 0.8942 -4.9301 -13.6674 -1.8401 2.8985 -6.5860 -0.1973 0.6588 22.2534 -5.3323 -13.4985 32.5956 13.3312 -1.2393 14.7161 7.3976 -0.0000 0.0000 0.0000 165.7106 -43.5339 -175.7890 20.8209 -31.6187 -5.9558 -0.0000 0.0000 -3.8449 21.5049 -0.6187 -0.2438 -7.1250 0.0000 -0.0000 7.0631 -60.6593 177.2960 -0.0000 0.0000 0.0000 31.4433 45.6214 -26.2872 -125.3929 54.6927 -90.1049 0.0000 0.0000 1.9890 -61.4735 10.6722 -18.8141 7.1250 -0.0000 -0.0000 -22.2479 -9.6014 -19.8252
-5.7950 17.7105 3.3810 -7.9362 35.1002 2.9840 0.0000 0.0000 0.0000 5.8269 19.9150 -6.3300 3.5219 11.4955 33.9697 -0.9034 18.5532 2.1235 1.8004 -8.4373 -24.0505 0.0000 0.0000 0.0000 24.5469 30.5914 -20.5968 -3.2641 -11.1108 32.6545 2.0758 24.8464 5.0681 -3.1513 -10.9360 32.0643 -15.1944 -10.0974 0.8654 -4.9998 -13.5887 -1.9008 2.8005 -6.5401 -0.2936 0.8408 22.2573 -5.3368 -13.4940 32.5974 13.3718 -1.2467 14.7203 7.4385 0.0000 0.0000 0.0000 164.7416 -43.1407 -174.7437 21.0652 -31.9044 -6.0844 -0.0000 0.0000 -4.4247 21.8631 -0.6649 -0.2668 -7.1250 0.0000 -0.0000 6.5731 -60.7142 177.4760 0.0000 0.0000 0.0000 29.4341 45.1813 -27.7640 -125.4737 54.6655 -90.1708 0.0000 0.0000 2.7950 -61.4633 9.9259 -17.5880 7.1250 -0.0000 -0.0000 -22.4867 -10.9223 -19.4190
